<svg xmlns="http://www.w3.org/2000/svg" xmlns:xlink="http://www.w3.org/1999/xlink" xmlns:inkscape="http://www.inkscape.org/namespaces/inkscape" version="1.1" width="460" height="140" viewBox="30 70 460 170">
<defs>
<clipPath id="clip_0">
<path transform="matrix(.24,0,0,.24,0,0)" d="M58.333333 233.33333H2424.9998V3447.2479H58.333333Z" clip-rule="evenodd"/>
</clipPath>
<g id="font_1_43">
<path transform="matrix(.001,0,0,-.001,0,0)" d="M425.57814-732H602.1875L846.1406 0H669.53128L425.57814-732ZM5 0 27.9375-67.8125C36.604169-94.489589 49.114583-117.5052 65.46875-136.85938 81.82292-156.21355 102.010417-172.22396 126.03125-184.89063L307.25-284.92189C323.21876-292.24479 333.03648-302.40104 336.70314-315.39064 340.36979-328.38023 338.04167-338.36979 329.71876-345.35939 321.40626-352.35939 309.91667-352.52604 295.25-345.85939L103.96875-251.8125C87.3125-244.47917 72.81771-245.14583 60.484376-253.8125 48.15104-262.4896 41.8125-275.99479 41.46875-294.32814 41.135419-312.66148 48.625-330.49479 63.9375-347.82814L126.9375-431.92189C138.9375-445.93229 150.60417-465.26564 161.9375-489.92189 173.27083-514.5781 185.59896-546.21878 198.92188-584.84378 204.90105-602.11459 210.89583-619.4427 216.90625-636.8281L248.95313-732 423.5625-733 416.57814-710.0625C406.60939-680.125 396.95835-655.16146 387.625-635.1719 378.29167-615.1927 368.11979-597.86459 357.10939-583.1875 346.09898-568.5208 332.92189-555.1875 317.57814-543.1875L304.57814-534.1875 109.078128-395.03126C96.43229-386.3854 89.604167-377.56773 88.59375-368.57814 87.583339-359.58854 91.40104-353.59376 100.046878-350.59376 108.703128-347.60417 118.69271-349.10417 130.01563-355.09376L399.54689-525.2656C432.92189-545.28646 459.29167-547.1198 478.65626-530.7656 498.02085-514.41146 504.53648-488.71876 498.20314-453.6875 491.88023-418.65626 472.04167-387.79689 438.6875-361.10939L308.625-254.04688C289.29167-238.71355 273.11979-221.70833 260.10939-203.03125 247.10938-184.35417 235.94792-161.35938 226.625-134.04688L181.60938 0H5Z"/>
</g>
<g id="font_2_131">
<path transform="matrix(.001,0,0,-.001,0,0)" d="M45.875-365C45.875-446.1771 63.552083-515.01046 98.90625-571.5 134.26042-627.98959 186.79166-670.8594 256.5-700.1094 326.20835-729.3698 412-744 513.875-744 590.46878-744 658.67709-733.7344 718.5-713.2031 778.32296-692.6719 827.2031-664.21878 865.1406-627.84378 903.08859-591.4792 928.6094-550 941.7031-503.40626L764.9375-485.76564C743.13546-518.9427 710.1667-545.69796 666.03128-566.03128 621.8958-586.36459 572.16146-597.1198 516.8281-598.2969 457.25523-599.8594 405.16148-591.42709 360.54689-573 315.94273-554.57296 281.50523-527.6042 257.23439-492.09376 232.96355-456.58335 220.82813-414.60939 220.82813-366.17189 220.82813-318.17189 232.90625-275.79689 257.0625-239.04688 281.21876-202.30728 315.375-174.09375 359.53126-154.40625 403.6875-134.72917 454.96354-125.47396 513.3594-126.640628 566.2969-127.81771 612.2656-138.82813 651.2656-159.67188 690.2656-180.51563 720.67709-209.82813 742.5-247.60938 764.32296-285.40104 775.9583-329.5521 777.40628-380.0625 777.80209-385.4375 777.86459-390.67189 777.59378-395.76564L777.1719-420.29689H904.125L905.2969-380.64064C905.0156-305.34895 889.5-238.22397 858.75-179.26563 828.01046-120.30729 782.3542-73.88542 721.78128-40 661.21878-6.114582 588.41146 11.21875 503.35939 12 404.21354 13.177083 320.59898-.36979104 252.51563-28.640625 184.4427-56.921876 132.98438-99.33333 98.140628-155.875 63.296876-212.4271 45.875-282.1354 45.875-365ZM950.2969-420.29689 876.1719-299.875 448.70314-299.46876 448.125-420.29689H950.2969ZM956.46878-420.29689V0H801.53128V-420.29689H956.46878Z"/>
</g>
<g id="font_3_78">
<path transform="matrix(.001,0,0,-.001,0,0)" d="M75.875-531.1719H237.46875C237.46875-464.1927 236.54688-425.34898 234.70313-414.64064L236.70313-414.0625C250.23438-452.1354 274.21354-482.48439 308.64064-505.10939 343.07814-527.7448 381.47398-539.65109 423.82814-540.8281 454.72398-542.0052 482.99479-539.1042 508.64064-532.125V-387.59376C478.96354-393.8229 451.46354-397.02604 426.14064-397.20314 400.82814-397.38023 378.88023-394.52604 360.29689-388.64064 337.54689-385.50523 317.18229-378.41667 299.20314-367.375 281.22398-356.34376 266.8021-341.29689 255.9375-322.23439 245.07292-303.17189 239.64063-281.25 239.64063-256.46876L239.0625 0H75.875V-531.1719Z"/>
</g>
<g id="font_4_1">
<path transform="matrix(.001,0,0,-.001,0,0)" d="M732.3594 0H569.59378C569.59378-7.916667 569.19796-17.463541 568.40628-28.640625 568.0208-44.09896 567.7969-59.65104 567.7344-75.296878 567.6719-90.94271 568.1719-105.56771 569.2344-119.171878H566.6406C558.0573-92.11979 542.59896-68.69792 520.2656-48.90625 497.93229-29.125 471.6354-14.026042 441.375-3.609375 411.125 6.796875 379.95835 12 347.875 12 287.4896 12 233.66667 .010417938 186.40625-23.96875 139.15625-47.947919 102.333339-80.95833 75.9375-123 49.552083-165.04167 36.359376-212.17708 36.359376-264.40626 36.359376-317.58335 48.864583-365.31773 73.875-407.60939 98.895839-449.91148 134.34896-483.07814 180.23438-507.10939 226.1198-531.15109 278.8646-543.1719 338.46876-543.1719 393.60417-543.1719 443.20314-530.4375 487.26564-504.96876 531.3281-479.5 560.19796-444.66667 573.875-400.46876L575.875-401.0625C574.03128-420.5521 572.9167-448.02085 572.53128-483.46876V-531.1719H732.3594V0ZM210.125-265.59376C210.125-238.13542 216.40625-214.17188 228.96875-193.70313 241.54167-173.23438 259.46354-157.4323 282.73439-146.29688 306.00523-135.16146 333.01564-129.59375 363.76564-129.59375 394.90104-129.59375 422.03648-135.16146 445.17189-146.29688 468.30729-157.4323 486.22917-173.23438 498.9375-193.70313 511.64585-214.17188 518-238.13542 518-265.59376 518-293.59376 511.71354-317.82814 499.14064-338.29689 486.57814-358.76564 468.65626-374.43229 445.375-385.29689 422.10417-396.16148 394.90104-401.59376 363.76564-401.59376 332.74479-401.59376 305.66667-396.16148 282.53126-385.29689 259.39585-374.43229 241.54167-358.76564 228.96875-338.29689 216.40625-317.82814 210.125-293.59376 210.125-265.59376Z"/>
</g>
<g id="font_4_133">
<path transform="matrix(.001,0,0,-.001,0,0)" d="M15.765625-531.1719H446.29689V-400.17189H15.765625V-531.1719ZM122.59375-526.125C122.59375-571.26046 135.14063-611.4531 160.23438-646.7031 185.32813-681.96359 222.20833-708.57296 270.875-726.53128 319.54167-744.48959 377.8802-750.3125 445.89064-744V-611.0625C421.49479-613.6875 398.14064-614.2031 375.82814-612.6094 353.51564-611.02609 335.98439-606.0208 323.23439-597.59378 310.76564-589.3542 301.1354-578.98959 294.34376-566.5 287.5625-554.01046 284.17189-539.375 284.17189-522.59378V0H122.59375V-526.125Z"/>
</g>
<g id="font_4_180">
<path transform="matrix(.001,0,0,-.001,0,0)" d="M76.46875-531.1719H238.0625V0H76.46875V-531.1719ZM156.64063-629.3594C139.4323-629.3594 123.53125-633.1719 108.9375-640.7969 94.354167-648.4219 82.854167-658.8125 74.4375-671.96878 66.03125-685.125 61.828126-699.46878 61.828126-715 61.828126-729.46878 66.13021-742.94796 74.734378-755.4375 83.33854-767.92709 94.83854-777.88546 109.234378-785.3125 123.63021-792.75 139.4323-796.46878 156.64063-796.46878 173.7448-796.46878 189.65625-792.75 204.375-785.3125 219.10417-777.88546 230.67188-767.92709 239.07813-755.4375 247.4948-742.94796 251.70313-729.46878 251.70313-715 251.70313-699.46878 247.4948-685.125 239.07813-671.96878 230.67188-658.8125 219.10417-648.4219 204.375-640.7969 189.65625-633.1719 173.7448-629.3594 156.64063-629.3594Z"/>
</g>
<g id="font_4_66">
<path transform="matrix(.001,0,0,-.001,0,0)" d="M660.6406-218.9375C656.52609-166.22916 640.1458-122.6875 611.5-88.3125 582.8542-53.947916 546.1302-28.635418 501.32814-12.375 456.52604 3.875 407.21876 12 353.40626 12 291.8854 12 237.20835 1.3229179 189.375-20.03125 141.55208-41.385419 104.09375-72.8177 77-114.328128 49.90625-155.83855 36.359376-205.39583 36.359376-263 36.359376-320.7604 49.90625-370.7604 77-413 104.09375-455.2396 141.65103-487.49479 189.67188-509.76564 237.69272-532.03646 292.27085-543.1719 353.40626-543.1719 436.8646-543.1719 507.14064-523.7969 564.2344-485.04689 621.3281-446.30729 653.3281-387.52607 660.2344-308.70314H491.35939C485.78648-338.34898 469.54689-360.35939 442.64064-374.73439 415.74479-389.10939 386-396.29689 353.40626-396.29689 325.1771-396.29689 299.76564-390.96354 277.17189-380.29689 254.58855-369.63023 236.82292-354.28648 223.875-334.26564 210.9375-314.24479 204.46875-290.6875 204.46875-263.59376 204.46875-237.55208 210.9375-214.72396 223.875-195.10938 236.82292-175.5052 254.6875-160.17188 277.46876-149.10938 300.25-138.0573 325.5625-132.53125 353.40626-132.53125 385.1771-132.53125 414.60939-139.95313 441.70314-154.79688 468.80729-169.64063 485.29689-191.02083 491.17189-218.9375H660.6406Z"/>
</g>
<g id="font_5_87">
<path transform="matrix(.001,0,0,-.001,0,0)" d="M616.8281-506.9375C613.6823-530.82296 605.8073-551.11459 593.2031-567.8125 580.59896-584.5208 562.1875-597.8958 537.96878-607.9375 513.75-617.9792 484.30729-623.19796 449.64064-623.59378 417.68229-624.375 389.40626-621.80209 364.8125-615.875 340.22917-609.9583 320.77085-600.8906 306.4375-588.6719 292.10417-576.46359 284.74479-561.21878 284.35939-542.9375 283.96354-526.8958 291.03126-513.1667 305.5625-501.75 320.09376-490.34376 337.81773-481.10939 358.73439-474.04689 379.66148-466.99479 404.375-459.58854 432.875-451.82814 439.46876-450.33854 445.8646-448.84898 452.0625-447.35939 456.84376-446.29689 460.90104-445.4896 464.23439-444.9375 543.96359-426.90626 607.2292-409.9271 654.03128-394 700.8333-378.08335 740.1458-355.18229 771.96878-325.29689 803.7917-295.41148 819.7031-255.85938 819.7031-206.64063 819.7031-156.99478 805.83859-115.708339 778.1094-82.78125 750.3906-49.864583 708.46359-25.541668 652.3281-9.8125 596.1927 5.90625 525.2031 13.177083 439.35939 12 357.47395 10.822917 288.63023 .83333399 232.82813-17.96875 177.02603-36.770837 134.6302-64.42708 105.640628-100.9375 76.66145-137.44792 61.645833-182.5104 60.59375-236.125V-242.0625H250.65625C252.61458-217.55208 261.9271-195.82292 278.59376-176.875 295.2604-157.9375 318.16148-142.96875 347.29689-131.96875 376.43229-120.96875 410.05729-115.27604 448.17189-114.890628 481.47398-114.49479 511.78126-117.765628 539.09378-124.703128 566.40628-131.65105 588.3958-142.29688 605.0625-156.64063 621.7292-170.9948 629.27609-189.03646 627.7031-210.76563 626.9219-228.14063 618.0469-242.86458 601.0781-254.9375 584.1198-267.02085 562.05209-276.95314 534.875-284.73439 507.70835-292.51564 474.35939-301.22917 434.82814-310.875 365.18229-325.22917 307.4271-339.48439 261.5625-353.64064 215.6979-367.79689 176.125-389.33335 142.84375-418.25 109.572917-447.1771 93.52604-485.21354 94.703128-532.3594 96.27604-603.7656 126.984378-656.8906 186.82813-691.7344 246.67188-726.5781 333.49479-744 447.29689-744 527.52609-744 594.34896-735.46878 647.7656-718.40628 701.1823-701.3542 741.3958-675.8281 768.40628-641.8281 795.42709-607.8281 809.34896-565.26046 810.1719-514.125V-506.9375H616.8281Z"/>
</g>
<g id="font_3_118">
<path transform="matrix(.001,0,0,-.001,0,0)" d="M157.875-415.46876H15.765625V-531.1719H157.875V-732H325.35939V-531.1719H463.35939V-415.46876H325.35939V0H157.875V-415.46876Z"/>
</g>
<g id="font_3_136">
<path transform="matrix(.001,0,0,-.001,0,0)" d="M634.53128 .171875H472.9375C472.9375-66.8073 473.85939-105.65104 475.70314-116.359378L473.70314-116.9375C460.17189-78.86458 436.1875-48.510419 401.75-25.875 367.3229-3.25 328.9375 8.651042 286.59376 9.828125 225.92708 11.786458 179.58335 1.8072929 147.5625-20.109375 115.541667-42.03646 93.953128-72.91145 82.796878-112.734378 71.640628-152.5573 66.0625-203.84375 66.0625-266.59376L66.46875-531H228.0625V-259.64064C228.0625-236.23438 230.6198-215.95313 235.73438-198.79688 240.84896-181.64063 252.35938-166.86458 270.26564-154.46875 288.17189-142.08333 314.79167-135.89063 350.125-135.89063 384.35417-135.89063 410.41667-143.25 428.3125-157.96875 446.21876-172.69792 457.86979-188.57292 463.26564-205.59375 468.66148-222.61458 471.35939-237.75 471.35939-251V-531H634.53128V.171875Z"/>
</g>
<g id="font_4_83">
<path transform="matrix(.001,0,0,-.001,0,0)" d="M688.125-732H526.53128L527.1094-500.17189C527.1094-456.92189 529.9948-426.82814 535.7656-409.89064H533.1719C521.72396-451.72398 497.04689-484.39585 459.14064-507.90626 421.24479-531.4167 376.92189-543.1719 326.17189-543.1719 262.64064-543.1719 209.01042-532.6198 165.28125-511.51564 121.5625-490.42189 88.5625-459.21876 66.28125-417.90626 44.010416-376.59376 32.875-325.4271 32.875-264.40626 32.875-204.71875 44.697916-154.34375 68.34375-113.28125 92-72.229167 126.96354-41.083337 173.23438-19.84375 219.50522 1.3854179 276.5625 12 344.40626 12 400.7604 12 449.16148 .19791794 489.60939-23.40625 530.0677-47.020837 555.5677-78.9427 566.1094-119.171878H568.7031C564.90109-105.36979 563.58859-65.645839 564.7656 0H688.125V-732ZM514.53128-265.59376C514.53128-238.13542 508.1771-214.17188 495.46876-193.70313 482.7604-173.23438 464.83854-157.4323 441.70314-146.29688 418.56773-135.16146 391.43229-129.59375 360.29689-129.59375 329.54689-129.59375 302.53648-135.16146 279.26564-146.29688 255.9948-157.4323 238.07292-173.23438 225.5-193.70313 212.92708-214.17188 206.64063-238.13542 206.64063-265.59376 206.64063-293.59376 212.92708-317.82814 225.5-338.29689 238.07292-358.76564 255.92708-374.43229 279.0625-385.29689 302.1979-396.16148 329.27604-401.59376 360.29689-401.59376 391.43229-401.59376 418.6354-396.16148 441.90626-385.29689 465.1875-374.43229 483.10939-358.76564 495.67189-338.29689 508.24479-317.82814 514.53128-293.59376 514.53128-265.59376Z"/>
</g>
<g id="font_3_28">
<path transform="matrix(.001,0,0,-.001,0,0)" d="M364.67189 12C293.48439 12 233.3698 1.520834 184.32813-19.4375 135.29688-40.40625 98.390628-71.59375 73.609378-113 48.828126-154.40625 36.4375-205 36.4375-264.78126 36.4375-325.375 48.828126-376.41148 73.609378-417.89064 98.390628-459.36979 135.16666-490.625 183.9375-511.65626 232.71875-532.69796 292.96354-543.21878 364.67189-543.21878 436.3698-543.21878 496.77604-532.69796 545.8906-511.65626 595.0052-490.625 631.94796-459.32814 656.71878-417.76564 681.5-376.21354 693.8906-325.21876 693.8906-264.78126 693.8906-205 681.5-154.44272 656.71878-113.109378 631.94796-71.77604 595.0052-40.588544 545.8906-19.546875 496.77604 1.484375 436.3698 12 364.67189 12ZM365.67189-129.21875C397.07814-129.21875 424.4479-134.84896 447.78126-146.10938 471.1146-157.3698 489.09376-173.16667 501.71876-193.5 514.3542-213.83333 520.6719-237.73958 520.6719-265.21876 520.6719-293.21876 514.3542-317.3854 501.71876-337.71876 489.09376-358.0521 471.1146-373.71876 447.78126-384.71876 424.4479-395.71876 397.07814-401.21876 365.67189-401.21876 333.74479-401.21876 306.1146-395.71876 282.78126-384.71876 259.4479-373.71876 241.46355-358.0521 228.82813-337.71876 216.20313-317.3854 209.89063-293.21876 209.89063-265.21876 209.89063-237.73958 216.20313-213.83333 228.82813-193.5 241.46355-173.16667 259.57814-157.3698 283.17189-146.10938 306.76564-134.84896 334.26564-129.21875 365.67189-129.21875Z"/>
</g>
<g id="font_3_95">
<path transform="matrix(.001,0,0,-.001,0,0)" d="M233.89063-171.21875C234.9323-162.11458 238.72917-153.85417 245.28125-146.4375 251.83333-139.03125 260.8854-132.88542 272.4375-128 284-123.114589 297.33854-120.15104 312.45314-119.109378 327.11979-118.078128 340.20835-118.802089 351.71876-121.28125 363.2396-123.760417 372.16667-127.68229 378.5-133.04688 384.83335-138.42188 388.0729-144.33333 388.21876-150.78125 388.3646-158.85417 384.1979-166.0573 375.71876-172.39063 367.2396-178.72396 356.86979-183.9427 344.60939-188.04688 332.34898-192.16146 316.625-196.66667 297.4375-201.5625L278.78126-206.89063 260.21876-212.21875C210.29166-226.73958 170.88542-242.07292 142-258.21876 113.11458-274.3646 92.541667-292.60417 80.28125-312.9375 68.020839-333.27085 62.223958-357.10417 62.890626-384.4375 63.036458-415.40626 73.421878-442.90626 94.046878-466.9375 114.6823-490.97917 143.59375-509.70314 180.78125-523.1094 217.96875-536.5156 261.22917-543.21878 310.5625-543.21878 363.8229-543.21878 408.91148-535.9427 445.82814-521.3906 482.75523-506.83854 510.8854-486.375 530.21878-460 549.55209-433.625 559.96359-402.58854 561.4531-366.89064H376.67189C376.81773-377.33854 373.97917-386.78126 368.15626-395.21876 362.34376-403.66667 354.25-410.4271 343.875-415.5 333.5104-420.5729 321.8854-423.36979 309-423.89064 295.8854-424.41148 283.99479-422.96354 273.32814-419.54689 262.66148-416.14064 254.29167-411.125 248.21875-404.5 242.14583-397.875 239.3698-390.04167 239.89063-381 240.41146-372.47917 245.59375-364.97917 255.4375-358.5 265.29167-352.02085 277.99479-346.31773 293.54689-341.39064 309.10939-336.46354 329.1875-330.96354 353.78126-324.89064H354.78126C400.6354-314.15104 438.875-300.89064 469.5-285.10939 500.1354-269.32814 523.5781-250.3802 539.8281-228.26563 556.08859-206.16146 564.21878-180.14583 564.21878-150.21875 564.21878-118.14583 554.19796-89.8698 534.15628-65.390628 514.125-40.911458 484.86979-21.890625 446.39064-8.328125 407.91148 5.223959 361.6354 12 307.5625 12 255.85416 12 210.84897 4.317709 172.54688-11.046875 134.2552-26.421875 104.4948-47.942708 83.265628-75.609378 62.046876-103.27605 50.661458-135.14583 49.109376-171.21875H233.89063Z"/>
</g>
</defs>
<g clip-path="url(#clip_0)">
<use data-text="+" xlink:href="#font_1_43" transform="matrix(91.54028,-.000000000000022420905,-.000000000000022420905,-91.54028,217.23397,163.29723)" fill="#ffffff"/>
<use data-text="&#xfffd;" xlink:href="#font_2_131" transform="matrix(45.77014,0,0,-45.77014,42.512548,209.06737)" fill="#ffffff"/>
<use data-text="N" xlink:href="#font_3_78" transform="matrix(45.77014,0,0,-45.77014,89.78335,209.06737)" fill="#ffffff"/>
<use data-text="&#xfffd;" xlink:href="#font_4_1" transform="matrix(45.77014,0,0,-45.77014,114.54425,209.06737)" fill="#ffffff"/>
<use data-text="&#xfffd;" xlink:href="#font_4_133" transform="matrix(45.77014,0,0,-45.77014,150.5601,209.06737)" fill="#ffffff"/>
<use data-text="&#xfffd;" xlink:href="#font_4_180" transform="matrix(45.77014,0,0,-45.77014,172.31967,209.06737)" fill="#ffffff"/>
<use data-text="B" xlink:href="#font_4_66" transform="matrix(45.77014,0,0,-45.77014,187.32628,209.06737)" fill="#ffffff"/>
<use data-text="&#xfffd;" xlink:href="#font_4_1" transform="matrix(45.77014,0,0,-45.77014,218.84015,209.06737)" fill="#ffffff"/>
<use data-text="W" xlink:href="#font_5_87" transform="matrix(45.77014,0,0,-45.77014,266.86128,209.06737)" fill="#ffffff"/>
<use data-text="v" xlink:href="#font_3_118" transform="matrix(45.77014,0,0,-45.77014,306.62879,209.06737)" fill="#ffffff"/>
<use data-text="&#xfffd;" xlink:href="#font_3_136" transform="matrix(45.77014,0,0,-45.77014,328.38838,209.06737)" fill="#ffffff"/>
<use data-text="S" xlink:href="#font_4_83" transform="matrix(45.77014,0,0,-45.77014,359.90223,209.06737)" fill="#ffffff"/>
<use data-text="&#xfffd;" xlink:href="#font_4_180" transform="matrix(45.77014,0,0,-45.77014,395.16777,209.06737)" fill="#ffffff"/>
<use data-text="&#xfffd;" xlink:href="#font_3_28" transform="matrix(45.77014,0,0,-45.77014,410.17436,209.06737)" fill="#ffffff"/>
<use data-text="_" xlink:href="#font_3_95" transform="matrix(45.77014,0,0,-45.77014,443.18888,209.06737)" fill="#ffffff"/>
</g>
</svg>
